<?xml version="1.0" standalone="no"?>
<!DOCTYPE svg PUBLIC "-//W3C//DTD SVG 20010904//EN"
 "http://www.w3.org/TR/2001/REC-SVG-20010904/DTD/svg10.dtd">
<svg version="1.0" xmlns="http://www.w3.org/2000/svg"
 width="700.000000pt" height="700.000000pt" viewBox="0 0 700.000000 700.000000"
 preserveAspectRatio="xMidYMid meet">
<metadata>
Created by potrace 1.11, written by Peter Selinger 2001-2013
</metadata>
<g transform="translate(0.000000,700.000000) scale(0.100000,-0.100000)"
fill="#000000" stroke="none">
<path d="M3215 6989 c-745 -64 -1437 -353 -1995 -835 -551 -475 -938 -1101
-1114 -1799 -73 -291 -101 -529 -101 -860 1 -404 50 -722 171 -1090 254 -772
784 -1445 1476 -1876 447 -278 924 -443 1483 -511 130 -16 600 -16 730 0 451
55 818 163 1195 351 729 364 1312 973 1639 1714 144 325 238 674 283 1052 16
139 16 595 0 730 -61 497 -198 932 -418 1327 -538 964 -1489 1620 -2569 1772
-249 35 -546 45 -780 25z m-1762 -963 c66 -28 101 -91 137 -243 l22 -93 509 0
508 0 17 58 c73 262 84 280 181 289 50 5 69 2 106 -16 58 -28 80 -72 85 -170
7 -129 -29 -239 -128 -387 -129 -191 -249 -324 -773 -851 -394 -396 -437 -442
-416 -448 34 -8 826 -11 834 -3 18 17 -9 56 -147 212 -51 57 -80 99 -84 121
-14 74 80 205 146 205 49 0 106 -36 197 -123 279 -267 495 -645 543 -950 19
-115 8 -281 -25 -392 -87 -296 -287 -571 -785 -1080 -346 -354 -414 -425 -422
-440 -12 -20 57 -28 187 -23 127 4 136 11 145 101 12 115 67 185 153 194 37 4
50 0 104 -37 118 -79 327 -323 398 -466 77 -155 97 -344 45 -429 -44 -71 -139
-94 -220 -52 -65 33 -83 64 -91 155 -9 100 -22 127 -76 153 -56 27 -245 38
-675 39 l-318 0 -5 -23 c-33 -154 -50 -212 -76 -265 -51 -104 -117 -128 -201
-72 -108 72 -129 156 -83 346 49 208 96 267 753 943 471 486 558 582 537 593
-27 16 -433 28 -610 18 -189 -10 -235 -17 -235 -35 0 -15 34 -59 91 -120 47
-50 69 -101 69 -160 0 -121 -95 -203 -203 -175 -95 25 -309 307 -467 616 -68
131 -94 207 -115 328 -32 186 -14 375 52 541 105 265 274 484 759 985 252 261
414 437 414 451 0 16 -54 24 -176 24 -149 0 -159 -6 -167 -95 -10 -118 -80
-200 -169 -200 -90 0 -356 276 -471 489 -69 127 -107 334 -73 399 43 82 141
121 219 88z m2117 -1296 c242 -141 451 -255 521 -284 36 -15 37 -15 145 41
118 60 328 179 543 306 75 44 141 80 147 80 23 1 780 -439 936 -545 l91 -61
-7 -316 c-3 -174 -9 -429 -13 -566 l-6 -251 -385 -224 c-211 -123 -386 -229
-387 -235 -2 -5 -11 -183 -19 -395 -9 -212 -19 -424 -22 -472 l-7 -88 -41 -23
c-22 -13 -176 -101 -341 -196 -360 -208 -573 -321 -605 -321 -29 0 -223 102
-555 293 -143 82 -299 171 -346 199 l-87 49 -7 207 c-13 373 -10 659 8 732 9
36 47 130 86 210 74 151 119 274 147 400 23 103 23 347 0 450 -53 240 -134
407 -363 747 -57 86 -102 160 -101 165 4 12 409 249 417 244 3 -2 116 -68 251
-146z"/>
<path d="M1445 3733 c-42 -107 -52 -215 -31 -352 9 -62 20 -119 23 -127 4 -12
87 -14 537 -14 547 0 750 9 810 34 49 20 61 63 60 216 0 134 -15 227 -42 260
-9 12 -35 26 -57 32 -26 7 -251 12 -656 15 l-616 4 -28 -68z m1130 -124 c24
-6 52 -20 62 -31 23 -26 23 -90 -1 -117 -25 -27 -112 -44 -208 -39 -73 3 -82
6 -104 31 -27 31 -33 92 -11 120 34 45 158 62 262 36z"/>
<path d="M4619 4267 l-304 -172 0 -383 0 -383 245 -135 c135 -75 277 -153 316
-174 l71 -40 304 174 304 175 0 383 0 383 -185 107 c-178 104 -370 207 -422
227 -22 8 -64 -12 -329 -162z"/>
<path d="M4009 2977 c-37 -13 -162 -80 -278 -148 l-211 -124 3 -390 2 -389
170 -99 c208 -121 400 -219 429 -220 34 0 162 63 399 196 l217 122 0 390 0
390 -209 118 c-265 149 -309 168 -391 174 -51 3 -79 -1 -131 -20z"/>
</g>
</svg>
